<svg width="27" height="26" viewBox="0 0 27 26" fill="none" xmlns="http://www.w3.org/2000/svg">
<g clip-path="url(#clip0_2900_1188)">
<path d="M26.9937 11.8831C26.9904 11.8338 26.981 11.7867 26.9646 11.7401C26.9586 11.7228 26.9542 11.706 26.9465 11.6892C26.9202 11.6328 26.8867 11.5798 26.8406 11.5348L26.8401 11.5343L23.7102 8.44242V5.41667C23.7102 5.40475 23.7041 5.39446 23.703 5.38254C23.6997 5.33488 23.6904 5.28883 23.6751 5.24333C23.669 5.226 23.6646 5.20921 23.6564 5.19242C23.6295 5.135 23.5961 5.08029 23.5489 5.03371L18.613 0.158708C18.5658 0.112125 18.5104 0.0785417 18.4517 0.052C18.4353 0.0449583 18.4188 0.0400833 18.4024 0.0346667C18.3552 0.0184167 18.3069 0.00920833 18.2576 0.00595833C18.2466 0.00541667 18.2368 0 18.2258 0H4.51484C4.21211 0 3.96641 0.242667 3.96641 0.541667V8.44242L0.836473 11.5337L0.835377 11.5348C0.789308 11.5803 0.756402 11.6334 0.730077 11.6892C0.722398 11.706 0.718011 11.7228 0.711978 11.7401C0.695525 11.7867 0.685653 11.8338 0.682911 11.8831C0.681814 11.895 0.675781 11.9048 0.675781 11.9167V22.2083C0.675781 22.5073 0.921481 22.75 1.22422 22.75H3.96641V25.4583C3.96641 25.7573 4.21211 26 4.51484 26H23.1617C23.4645 26 23.7102 25.7573 23.7102 25.4583V22.75H26.4523C26.7551 22.75 27.0008 22.5073 27.0008 22.2083V11.9167C27.0008 11.9048 26.9947 11.895 26.9937 11.8831ZM25.1284 11.375H23.7102V9.97425L25.1284 11.375ZM21.8378 4.875H18.7742V1.84925L21.8378 4.875ZM5.06328 1.08333H17.6773V5.41667C17.6773 5.71567 17.923 5.95833 18.2258 5.95833H22.6133V8.66667V11.375H5.06328V8.66667V1.08333ZM3.96641 9.97425V11.375H2.54815L3.96641 9.97425ZM22.6133 24.9167H5.06328V22.75H22.6133V24.9167ZM25.9039 21.6667H1.77266V12.4583H4.51484H23.1617H25.9039V21.6667Z" fill="#353E51"/>
<path d="M10.6871 14.474C10.51 14.3239 10.3098 14.2177 10.0855 14.1565C9.86174 14.0953 9.64401 14.0645 9.43286 14.0645H7.60547V20.584H8.70563V17.9688H9.4888C9.7186 17.9688 9.94236 17.9287 10.1601 17.8491C10.3778 17.7695 10.5703 17.6465 10.7381 17.4807C10.906 17.315 11.0409 17.1081 11.144 16.8589C11.2465 16.6103 11.2981 16.3205 11.2981 15.989C11.2981 15.6207 11.2405 15.3135 11.1253 15.0682C11.0102 14.8228 10.8643 14.6245 10.6871 14.474ZM9.98349 16.795C9.81567 16.9759 9.60123 17.0664 9.34018 17.0664H8.70618V14.9945H9.34018C9.60123 14.9945 9.81567 15.0741 9.98349 15.2339C10.1513 15.3937 10.2352 15.6483 10.2352 15.9982C10.2352 16.3481 10.1513 16.6135 9.98349 16.795Z" fill="#353E51"/>
<path d="M17.5234 20.584H18.6516V17.7846H20.3391V16.8362H18.6428V15.059H20.479V14.0645H17.5234V20.584Z" fill="#353E51"/>
<path d="M13.8783 14.0645H12.2188V20.584H13.869C14.7207 20.584 15.3657 20.3001 15.8039 19.7325C16.2421 19.1642 16.4609 18.3647 16.4609 17.3334C16.4609 16.3021 16.2421 15.4993 15.8039 14.9252C15.3657 14.3515 14.724 14.0645 13.8783 14.0645ZM15.2352 18.3322C15.1639 18.6182 15.0624 18.856 14.9324 19.0462C14.8019 19.2363 14.6467 19.3793 14.4662 19.4741C14.2858 19.5694 14.09 19.6171 13.8789 19.6171H13.3474V15.0313H13.8789C14.09 15.0313 14.2858 15.079 14.4662 15.1743C14.6467 15.2691 14.8019 15.4121 14.9324 15.6022C15.0629 15.7924 15.1639 16.0318 15.2352 16.3205C15.3065 16.6092 15.3427 16.9467 15.3427 17.3334C15.3427 17.7142 15.3065 18.0468 15.2352 18.3322Z" fill="#353E51"/>
</g>
<defs>
<clipPath id="clip0_2900_1188">
<rect width="27" height="26" fill="white"/>
</clipPath>
</defs>
</svg>
